<svg xmlns="http://www.w3.org/2000/svg" height="20" width="20" class="main-footer__social__icon"><path d="M10 19c-4.961 0-9-4.039-9-9s4.039-9 9-9 9 4.039 9 9-4.039 9-9 9zm7.59-7.769c-.263-.082-2.377-.714-4.788-.328 1.005 2.763 1.415 5.013 1.494 5.481a7.71 7.71 0 0 0 3.296-5.152zm-4.586 5.857c-.115-.676-.563-3.025-1.643-5.828l-.05.015c-4.342 1.511-5.894 4.519-6.03 4.8A7.621 7.621 0 0 0 10 17.7a7.631 7.631 0 0 0 3-.611zm-8.715-1.936c.174-.3 2.284-3.79 6.249-5.073a5.17 5.17 0 0 1 .303-.09 27.32 27.32 0 0 0-.623-1.305C6.377 9.83 2.653 9.782 2.316 9.775l-.003.234c0 1.975.748 3.778 1.975 5.141zM2.474 8.436c.345.006 3.512.02 7.107-.936a49.105 49.105 0 0 0-2.85-4.446 7.706 7.706 0 0 0-4.256 5.378zM8.2 2.54a41.02 41.02 0 0 1 2.867 4.5c2.733-1.024 3.892-2.58 4.03-2.777A7.642 7.642 0 0 0 10 2.323c-.619 0-1.222.075-1.8.214zm7.751 2.612c-.163.218-1.451 1.87-4.293 3.03.18.368.353.739.51 1.115.06.135.113.27.165.397 2.558-.322 5.1.195 5.355.248a7.608 7.608 0 0 0-1.732-4.785z"/></svg>