<svg xmlns="http://www.w3.org/2000/svg" height="20" width="20" class="main-footer__social__icon"><path d="M19.96 3.905a8.437 8.437 0 0 1-2.353.636 4.079 4.079 0 0 0 1.802-2.233 8.552 8.552 0 0 1-2.606.97A4.113 4.113 0 0 0 13.811 2c-2.264 0-4.1 1.807-4.1 4.033 0 .32.038.627.106.922a11.675 11.675 0 0 1-8.45-4.205 3.908 3.908 0 0 0-.555 2.03 4.02 4.02 0 0 0 1.823 3.36 4.137 4.137 0 0 1-1.857-.505v.05c0 1.956 1.411 3.588 3.288 3.96a4.226 4.226 0 0 1-1.843.069 4.106 4.106 0 0 0 3.837 2.803 8.307 8.307 0 0 1-5.085 1.726A8.84 8.84 0 0 1 0 16.188 11.798 11.798 0 0 0 6.297 18c7.545 0 11.666-6.148 11.666-11.472 0-.171 0-.344-.013-.516A8.21 8.21 0 0 0 20 3.922z" fill-rule="evenodd"/></svg>