<svg xmlns="http://www.w3.org/2000/svg" height="20" width="20" class="main-footer__social__icon"><path d="M19.582 5.162a2.509 2.509 0 0 0-1.74-1.744C16.282 3 10.009 3 10.009 3s-6.258-.008-7.833.418a2.509 2.509 0 0 0-1.74 1.744A26.147 26.147 0 0 0 0 10.009c-.005 1.62.141 3.236.436 4.828a2.509 2.509 0 0 0 1.74 1.744C3.733 17 10.01 17 10.01 17s6.257 0 7.833-.42a2.509 2.509 0 0 0 1.74-1.743c.289-1.593.428-3.21.417-4.828a26.131 26.131 0 0 0-.417-4.847zM8.007 13.007V7.001l5.221 3.008z" fill-rule="evenodd"/></svg>